<?xml version="1.0" encoding="utf-8"?>
<!-- Generator: Adobe Illustrator 22.1.0, SVG Export Plug-In . SVG Version: 6.00 Build 0)  -->
<svg version="1.1" id="Layer_1" xmlns="http://www.w3.org/2000/svg" xmlns:xlink="http://www.w3.org/1999/xlink" x="0px" y="0px"
	 viewBox="0 0 79.3 70" style="enable-background:new 0 0 79.3 70;" xml:space="preserve">
<style type="text/css">
	.st0{fill:#40D1AD;}
	.st1{fill:#FFFFFF;}
</style>
<g>
	<path class="st0" d="M67.7,58.4C60,66.1,49.8,70,39.6,70c-9.1,0-18.3-3.1-25.7-9.4l4.6-4.6c5.9,4.9,13.3,7.5,21,7.5
		c8.9,0,17.2-3.4,23.4-9.7C76,40.9,76,19.8,63.1,6.9l-2.3-2.3L65.4,0l2.3,2.3C83.2,17.8,83.2,42.9,67.7,58.4z"/>
	<path class="st1" d="M57.7,16.9L14,60.6l-2.4-2.2c-15.5-15.5-15.5-40.6,0-56.1L13.9,0l4.6,4.6l-2.3,2.3C4.1,19.1,3.3,38.4,14,51.4
		l21-21L21.6,16.9l4.6-4.6l13.5,13.5l13.5-13.5L57.7,16.9z"/>
</g>
</svg>
