<?xml version="1.0" encoding="utf-8"?>
<!-- Generator: Adobe Illustrator 22.1.0, SVG Export Plug-In . SVG Version: 6.00 Build 0)  -->
<svg version="1.1" id="Layer_1" xmlns="http://www.w3.org/2000/svg" xmlns:xlink="http://www.w3.org/1999/xlink" x="0px" y="0px"
	 viewBox="0 0 276 265.8" style="enable-background:new 0 0 276 265.8;" xml:space="preserve">
<style type="text/css">
	.st0{fill:#152A16;}
</style>
<path class="st0" d="M159.3,112.4c9.9,0,19.1,3.1,26.7,8.4l3.6-3.6c-8.5-6.2-19-9.8-30.3-9.8c-11.4,0-21.9,3.7-30.5,9.9l3.6,3.6
	C140,115.5,149.3,112.4,159.3,112.4z"/>
<path class="st0" d="M120.9,132.4l-3.6-3.6c-6.2,8.6-9.9,19.1-9.9,30.5c0,11.3,3.6,21.8,9.8,30.3l3.6-3.6
	c-5.3-7.6-8.4-16.8-8.4-26.7C112.4,149.3,115.5,140,120.9,132.4z"/>
</svg>
