<?xml version="1.0" encoding="utf-8"?>
<!-- Generator: Adobe Illustrator 22.1.0, SVG Export Plug-In . SVG Version: 6.00 Build 0)  -->
<svg version="1.1" id="Layer_1" xmlns="http://www.w3.org/2000/svg" xmlns:xlink="http://www.w3.org/1999/xlink" x="0px" y="0px"
	 viewBox="0 0 276 265.8" style="enable-background:new 0 0 276 265.8;" xml:space="preserve">
<style type="text/css">
	.st0{fill:#152A16;}
</style>
<path class="st0" d="M159.3,123.1c7,0,13.5,2,19,5.4l3.6-3.6c-6.5-4.3-14.2-6.8-22.6-6.8c-8.4,0-16.2,2.5-22.8,6.9l3.6,3.6
	C145.7,125.2,152.3,123.1,159.3,123.1z"/>
<path class="st0" d="M128.6,140.2l-3.6-3.6c-4.3,6.5-6.9,14.4-6.9,22.8c0,8.3,2.5,16.1,6.8,22.6l3.6-3.6c-3.4-5.5-5.4-12-5.4-19
	C123.1,152.3,125.2,145.7,128.6,140.2z"/>
<polygon class="st0" points="186.6,135.6 190.1,132 275.9,46.2 276,39 186.5,128.4 183,132 "/>
<polygon class="st0" points="132,135.6 128.5,132 32.4,35.9 38.7,35.1 132,128.5 135.6,132 "/>
<polygon class="st0" points="132,183 128.5,186.6 49.2,265.8 56.3,265.8 132,190.1 135.6,186.6 "/>
</svg>
