<?xml version="1.0" encoding="utf-8"?>
<!-- Generator: Adobe Illustrator 22.1.0, SVG Export Plug-In . SVG Version: 6.00 Build 0)  -->
<svg version="1.1" id="Layer_1" xmlns="http://www.w3.org/2000/svg" xmlns:xlink="http://www.w3.org/1999/xlink" x="0px" y="0px"
	 viewBox="0 0 276 265.8" style="enable-background:new 0 0 276 265.8;" xml:space="preserve">
<style type="text/css">
	.st0{fill:#152A16;}
</style>
<path class="st0" d="M159.3,90.9c15.8,0,30.5,5.4,42.1,14.5l3.6-3.6c-12.5-10-28.4-16-45.6-16c-17.3,0-33.2,6-45.8,16.1l3.5,3.6
	C128.7,96.4,143.4,90.9,159.3,90.9z"/>
<path class="st0" d="M105.6,117.1l-3.6-3.5c-10.1,12.6-16.1,28.5-16.1,45.8c0,17.2,6,33.1,16,45.6l3.6-3.6
	c-9.1-11.6-14.5-26.2-14.5-42.1C90.9,143.4,96.4,128.7,105.6,117.1z"/>
</svg>
