<?xml version="1.0" encoding="utf-8"?>
<!-- Generator: Adobe Illustrator 22.1.0, SVG Export Plug-In . SVG Version: 6.00 Build 0)  -->
<svg version="1.1" id="Layer_1" xmlns="http://www.w3.org/2000/svg" xmlns:xlink="http://www.w3.org/1999/xlink" x="0px" y="0px"
	 viewBox="0 0 276 265.8" style="enable-background:new 0 0 276 265.8;" xml:space="preserve">
<style type="text/css">
	.st0{fill:#152A16;}
</style>
<path class="st0" d="M159.3,80.2c18.8,0,36.1,6.6,49.7,17.6l3.6-3.6c-14.5-11.9-33.1-19.1-53.2-19.1c-20.3,0-38.9,7.2-53.4,19.2
	l3.5,3.5C123,86.8,140.4,80.2,159.3,80.2z"/>
<path class="st0" d="M97.9,109.4l-3.5-3.5c-12,14.5-19.2,33.1-19.2,53.4c0,20.2,7.1,38.8,19.1,53.2l3.6-3.6
	c-11-13.6-17.6-30.9-17.6-49.7C80.2,140.4,86.8,123,97.9,109.4z"/>
</svg>
