<?xml version="1.0" encoding="utf-8"?>
<!-- Generator: Adobe Illustrator 22.1.0, SVG Export Plug-In . SVG Version: 6.00 Build 0)  -->
<svg version="1.1" id="Layer_1" xmlns="http://www.w3.org/2000/svg" xmlns:xlink="http://www.w3.org/1999/xlink" x="0px" y="0px"
	 viewBox="0 0 276 265.8" style="enable-background:new 0 0 276 265.8;" xml:space="preserve">
<style type="text/css">
	.st0{fill:#152A16;}
</style>
<path class="st0" d="M159.3,101.7c12.9,0,24.8,4.2,34.4,11.4l3.6-3.6c-10.5-8.1-23.7-12.9-38-12.9c-14.3,0-27.6,4.8-38.1,13l3.6,3.6
	C134.4,106,146.3,101.7,159.3,101.7z"/>
<path class="st0" d="M113.2,124.7l-3.6-3.6c-8.2,10.6-13,23.8-13,38.1c0,14.3,4.8,27.4,12.9,38l3.6-3.6
	c-7.2-9.6-11.4-21.5-11.4-34.4C101.7,146.3,106,134.4,113.2,124.7z"/>
</svg>
